<?xml version="1.0" encoding="UTF-8" standalone="no"?>
<svg width="25px" height="29px" viewBox="0 0 25 29" version="1.1" xmlns="http://www.w3.org/2000/svg" xmlns:xlink="http://www.w3.org/1999/xlink" xmlns:sketch="http://www.bohemiancoding.com/sketch/ns">
    <!-- Generator: Sketch 3.2.2 (9983) - http://www.bohemiancoding.com/sketch -->
    <title>feed</title>
    <desc>Created with Sketch.</desc>
    <defs></defs>
    <g id="Home" stroke="none" stroke-width="1" fill="none" fill-rule="evenodd" sketch:type="MSPage">
        <g id="Icons" sketch:type="MSArtboardGroup" transform="translate(-91.000000, -296.000000)" fill="#0A0B09">
            <g id="Group" sketch:type="MSLayerGroup" transform="translate(75.000000, 174.000000)">
                <g id="Fill-144-+-Feed" transform="translate(14.000000, 122.000000)" sketch:type="MSShapeGroup">
                    <path d="M17.625,19.3333333 L20.75,19.3333333 L20.75,17.7222222 L17.625,17.7222222 L17.625,19.3333333 Z M8.25,22.5555556 L20.75,22.5555556 L20.75,20.9444444 L8.25,20.9444444 L8.25,22.5555556 Z M12.9375,16.1111111 L20.75,16.1111111 L20.75,14.5 L12.9375,14.5 L12.9375,16.1111111 Z M8.25,16.1111111 L11.375,16.1111111 L11.375,14.5 L8.25,14.5 L8.25,16.1111111 Z M8.25,12.8888889 L12.9375,12.8888889 L12.9375,6.44444444 L8.25,6.44444444 L8.25,12.8888889 Z M14.5,9.66666667 L20.75,9.66666667 L20.75,6.44444444 L14.5,6.44444444 L14.5,9.66666667 Z M14.5,12.8888889 L20.75,12.8888889 L20.75,11.2777778 L14.5,11.2777778 L14.5,12.8888889 Z M8.25,19.3333333 L16.0625,19.3333333 L16.0625,17.7222222 L8.25,17.7222222 L8.25,19.3333333 Z M5.125,3.22222222 L23.875,3.22222222 L23.875,25.7777778 L5.125,25.7777778 L5.125,3.22222222 Z M23.875,0 L5.125,0 C3.40625,0 2,1.45 2,3.22222222 L2,25.7777778 C2,27.55 3.40625,29 5.125,29 L23.875,29 C25.59375,29 27,27.55 27,25.7777778 L27,3.22222222 C27,1.45 25.59375,0 23.875,0 L23.875,0 Z" id="feed"></path>
                </g>
            </g>
        </g>
    </g>
</svg>