<?xml version="1.0" encoding="UTF-8" standalone="no"?>
<svg width="25px" height="18px" viewBox="0 0 25 18" version="1.1" xmlns="http://www.w3.org/2000/svg" xmlns:xlink="http://www.w3.org/1999/xlink" xmlns:sketch="http://www.bohemiancoding.com/sketch/ns">
    <!-- Generator: Sketch 3.2.2 (9983) - http://www.bohemiancoding.com/sketch -->
    <title>tasks</title>
    <desc>Created with Sketch.</desc>
    <defs></defs>
    <g id="Home" stroke="none" stroke-width="1" fill="none" fill-rule="evenodd" sketch:type="MSPage">
        <g id="Icons" sketch:type="MSArtboardGroup" transform="translate(-92.000000, -655.000000)" fill="#0A0B09">
            <g id="Group" sketch:type="MSLayerGroup" transform="translate(75.000000, 174.000000)">
                <g id="Fill-145-+-Tasks" transform="translate(12.000000, 481.000000)" sketch:type="MSShapeGroup">
                    <path d="M28.2142857,14.4 L15.7142857,14.4 C14.7285714,14.4 13.9285714,15.2028 13.9285714,16.2 C13.9285714,17.1936 14.7285714,18 15.7142857,18 L28.2142857,18 C29.2,18 30,17.1936 30,16.2 C30,15.2028 29.2,14.4 28.2142857,14.4 L28.2142857,14.4 Z M28.2142857,7.2 L15.7142857,7.2 C14.7285714,7.2 13.9285714,8.0028 13.9285714,9 C13.9285714,9.9936 14.7285714,10.8 15.7142857,10.8 L28.2142857,10.8 C29.2,10.8 30,9.9936 30,9 C30,8.0028 29.2,7.2 28.2142857,7.2 L28.2142857,7.2 Z M15.7142857,3.6 L28.2142857,3.6 C29.2,3.6 30,2.7936 30,1.8 C30,0.8028 29.2,0 28.2142857,0 L15.7142857,0 C14.7285714,0 13.9285714,0.8028 13.9285714,1.8 C13.9285714,2.7936 14.7285714,3.6 15.7142857,3.6 L15.7142857,3.6 Z M8.57142857,0 L6.78571429,0 C5.8,0 5,0.8028 5,1.8 C5,2.7936 5.8,3.6 6.78571429,3.6 L8.57142857,3.6 C9.55714286,3.6 10.3571429,2.7936 10.3571429,1.8 C10.3571429,0.8028 9.55714286,0 8.57142857,0 L8.57142857,0 Z M8.57142857,7.2 L6.78571429,7.2 C5.8,7.2 5,8.0028 5,9 C5,9.9936 5.8,10.8 6.78571429,10.8 L8.57142857,10.8 C9.55714286,10.8 10.3571429,9.9936 10.3571429,9 C10.3571429,8.0028 9.55714286,7.2 8.57142857,7.2 L8.57142857,7.2 Z M8.57142857,14.4 L6.78571429,14.4 C5.8,14.4 5,15.2028 5,16.2 C5,17.1936 5.8,18 6.78571429,18 L8.57142857,18 C9.55714286,18 10.3571429,17.1936 10.3571429,16.2 C10.3571429,15.2028 9.55714286,14.4 8.57142857,14.4 L8.57142857,14.4 Z" id="tasks"></path>
                </g>
            </g>
        </g>
    </g>
</svg>